<?xml version="1.0" encoding="UTF-8" standalone="no"?>
<!-- Created with Inkscape (http://www.inkscape.org/) -->

<svg
   width="1515.9757"
   height="1554.564"
   viewBox="0 0 1515.9757 1554.564"
   version="1.1"
   id="svg1"
   xml:space="preserve"
   xmlns="http://www.w3.org/2000/svg"
   xmlns:svg="http://www.w3.org/2000/svg"><defs
     id="defs1" /><g
     id="g154"
     transform="translate(-1278.6865,-183.07362)"><rect
       style="opacity:1;fill:#000000;stroke-width:0.871723"
       id="rect154"
       width="1515.9757"
       height="1554.5641"
       x="1278.6865"
       y="183.07362"
       rx="165.37917"
       ry="165.37917" /><g
       id="g152"
       transform="matrix(1.1819304,0,0,1.1819304,1221.4451,-251.3854)"
       style="display:inline;fill:#ffffff"><g
         id="g151"
         style="fill:#ffffff"
         transform="matrix(1.1241978,0,0,1.1437259,-65.526544,-210.00196)"><g
           id="g98"
           transform="matrix(0.67003899,0,0,0.67003899,-1118.617,321.0081)"
           style="opacity:1;fill:#ffffff"><path
             style="display:inline;fill:#ffffff"
             d="m 710.05015,1170.142 c -1.63575,-0.5153 -2.03724,-0.6899 -3.38458,-1.2441 -0.30818,-0.1267 -0.78754,-0.3794 -1.16397,-0.5512 -0.29482,-0.1346 -0.62748,-0.2952 -1.01936,-0.5118 l -1.57154,-0.9338 -1.35018,-0.956 -1.5105,-1.3508 -1.22875,-1.3944 c -0.20921,-0.2374 -0.50683,-0.5979 -0.79649,-0.9444 -0.24747,-0.296 -0.38647,-0.4751 -0.65667,-0.7862 -0.1483,-0.1708 -0.31383,-0.4244 -0.42854,-0.6023 -0.21075,-0.3267 -0.28747,-0.4828 -0.50289,-0.7496 -0.15808,-0.1958 -0.36319,-0.5171 -0.45889,-0.7196 -0.13917,-0.2946 -0.35044,-0.5423 -0.5085,-0.8388 -0.082,-0.1538 -0.18798,-0.3629 -0.28572,-0.5494 -0.092,-0.1756 -0.21514,-0.4581 -0.33312,-0.6974 -0.0966,-0.1958 -0.2358,-0.4257 -0.29377,-0.6079 -0.0827,-0.2598 -0.22474,-0.5435 -0.29253,-0.7098 l -0.2381,-0.584 -0.26363,-0.635 -0.37638,-1.2008 -0.32807,-1.2042 -0.24149,-1.1083 -0.14208,-0.9953 -0.064,-0.9396 -0.005,-17.9627 -0.005,-19.4445 0.24767,-1.6369 0.39649,-1.405 c 0.45283,-1.7537 0.4558,-1.6461 0.96513,-3.0601 0.26979,-0.749 0.53528,-1.262 0.83137,-1.8248 0.30835,-0.5861 0.65333,-1.2227 1.24834,-2.0585 l 1.79044,-2.6102 2.70917,-2.7942 2.40876,-1.8103 2.09487,-1.2589 2.3698,-1.0458 2.16615,-0.7111 2.64936,-0.5497 2.35102,-0.2454 2.38861,-0.01 2.04585,0.2386 2.26064,0.4624 2.02986,0.5927 2.21116,0.9524 1.91999,1.1334 1.55082,1.0279 1.2529,0.9333 1.36293,1.2723 1.37851,1.4435 1.28844,1.5476 1.14514,1.7307 0.83252,1.2848 1.24902,2.696 0.50544,1.6186 0.54548,2.1358 0.24817,1.6285 v 18.2188 19.0321 1.2685 l -0.26951,1.708 -0.36477,1.7331 -0.56372,1.7308 -0.66792,1.6617 c -0.2182,0.5428 -0.44129,1.0126 -0.70934,1.443 -0.22481,0.361 -0.50054,0.8819 -0.76911,1.2697 -0.21468,0.31 -0.47034,0.6615 -0.70063,1.0691 -0.3191,0.5648 -0.6394,0.9763 -1.03543,1.4558 -0.18516,0.2242 -0.67523,0.8108 -1.33493,1.5172 -0.72027,0.7712 -1.4085,1.3651 -2.27779,2.047 -0.64944,0.5094 -1.59075,1.2464 -2.49674,1.7091 l -1.41011,0.8033 -1.5231,0.695 -2.03387,0.8442 -2.12203,0.5712 -1.9633,0.3418 -2.2571,0.1617 -1.84771,-10e-4 -2.77465,-0.306 z"
             id="path181-6-4"
             transform="translate(1556.7803,46.668752)" /><path
             style="display:inline;fill:#ffffff"
             d="m 798.00449,1248.8337 c -1.63575,-0.5153 -2.03724,-0.6899 -3.38458,-1.2441 -0.30818,-0.1267 -0.78754,-0.3794 -1.16397,-0.5512 -0.29482,-0.1346 -0.63443,-0.2831 -1.01936,-0.5118 l -1.57154,-0.9338 -1.35018,-0.956 -1.5105,-1.3508 -1.22875,-1.3944 c -0.2092,-0.2374 -0.50683,-0.5979 -0.79649,-0.9444 -0.24747,-0.296 -0.38647,-0.4751 -0.65667,-0.7862 -0.1483,-0.1708 -0.31383,-0.4244 -0.42854,-0.6023 -0.21075,-0.3267 -0.28747,-0.4828 -0.50289,-0.7496 -0.15808,-0.1958 -0.36319,-0.5171 -0.45889,-0.7196 -0.13917,-0.2946 -0.35044,-0.5423 -0.5085,-0.8388 -0.082,-0.1538 -0.18798,-0.3629 -0.28572,-0.5494 -0.092,-0.1756 -0.21514,-0.4581 -0.33312,-0.6974 -0.0966,-0.1958 -0.2358,-0.4257 -0.29377,-0.6079 -0.0827,-0.2598 -0.22473,-0.5435 -0.29253,-0.7098 l -0.2381,-0.584 -0.26363,-0.635 -0.37638,-1.2008 -0.32807,-1.2042 -0.24149,-1.1083 -0.14208,-0.9953 -0.064,-0.9396 -0.005,-187.1295 -0.005,-19.7916 0.24767,-1.6369 0.39649,-1.405 c 0.45283,-1.7537 0.4558,-1.6461 0.96513,-3.0601 0.26979,-0.749 0.53528,-1.262 0.83137,-1.8248 0.30835,-0.5861 0.65333,-1.2227 1.24834,-2.0585 l 1.79044,-2.6102 2.70917,-2.7942 2.40876,-1.8103 2.09487,-1.2589 2.3698,-1.0458 2.16615,-0.7111 2.64936,-0.5497 2.35102,-0.2454 2.38861,-0.01 2.04585,0.2386 2.26064,0.4624 2.02986,0.5927 2.21116,0.9524 1.91999,1.1334 1.55082,1.0279 1.2529,0.9333 1.36293,1.2723 1.37851,1.4435 1.28844,1.5476 1.14514,1.7307 0.83252,1.2848 1.24902,2.696 0.50544,1.6186 0.54548,2.1358 0.24817,1.6285 v 18.5659 188.1989 1.2685 l -0.26951,1.708 -0.36477,1.7331 -0.56372,1.7308 -0.66792,1.6617 c -0.21818,0.5428 -0.44129,1.0126 -0.70934,1.443 -0.22481,0.361 -0.50054,0.8819 -0.76911,1.2697 -0.21468,0.31 -0.47034,0.6615 -0.70063,1.0691 -0.3191,0.5648 -0.6394,0.9763 -1.03543,1.4558 -0.18516,0.2242 -0.67523,0.8108 -1.33493,1.5172 -0.72027,0.7712 -1.4085,1.3651 -2.27779,2.047 -0.64944,0.5094 -1.6128,1.2056 -2.49674,1.7091 l -1.41011,0.8033 -1.5231,0.695 -2.03387,0.8442 -2.12203,0.5712 -1.9633,0.3418 -2.2571,0.1617 -1.84771,-10e-4 -2.77465,-0.306 z"
             id="path181-6-4-0"
             transform="translate(1556.7803,46.668752)" /><path
             style="display:inline;fill:#ffffff"
             d="m 976.06847,1248.4119 c -1.63575,-0.5153 -2.03724,-0.6899 -3.38458,-1.2441 -0.30818,-0.1267 -0.78754,-0.3794 -1.16397,-0.5512 -0.29482,-0.1346 -0.63443,-0.2831 -1.01936,-0.5118 l -1.57154,-0.9338 -1.35018,-0.956 -1.5105,-1.3508 -1.22875,-1.3944 c -0.2092,-0.2374 -0.50683,-0.5979 -0.79649,-0.9444 -0.24747,-0.296 -0.38647,-0.4751 -0.65667,-0.7862 -0.1483,-0.1708 -0.31383,-0.4244 -0.42854,-0.6023 -0.21075,-0.3267 -0.28747,-0.4828 -0.50289,-0.7496 -0.15808,-0.1958 -0.36319,-0.5171 -0.45889,-0.7196 -0.13917,-0.2946 -0.35044,-0.5423 -0.5085,-0.8388 -0.082,-0.1538 -0.18798,-0.3629 -0.28572,-0.5494 -0.092,-0.1756 -0.21514,-0.4581 -0.33312,-0.6974 -0.0966,-0.1958 -0.2358,-0.4257 -0.29377,-0.6079 -0.0827,-0.2598 -0.22473,-0.5435 -0.29253,-0.7098 l -0.2381,-0.584 -0.26363,-0.635 -0.37638,-1.2008 -0.32807,-1.2042 -0.24149,-1.1083 -0.14208,-0.9953 -0.064,-0.9396 -0.005,-187.1295 -0.005,-19.7916 0.24767,-1.6369 0.39649,-1.405 c 0.45283,-1.7537 0.4558,-1.6461 0.96513,-3.0601 0.26979,-0.749 0.53528,-1.262 0.83137,-1.8248 0.30835,-0.5861 0.65333,-1.2227 1.24834,-2.0585 l 1.79044,-2.6102 2.70917,-2.7942 2.40876,-1.8103 2.09487,-1.2589 2.3698,-1.0458 2.16615,-0.7111 2.64936,-0.54969 2.35102,-0.2454 2.38861,-0.01 2.04585,0.2386 2.26064,0.46239 2.02986,0.5927 2.21116,0.9524 1.91999,1.1334 1.55082,1.0279 1.2529,0.9333 1.36293,1.2723 1.37851,1.4435 1.28844,1.5476 1.1451,1.7307 0.8326,1.2848 1.249,2.696 0.5054,1.6186 0.5455,2.1358 0.2482,1.6285 v 18.5659 188.1989 1.2685 l -0.2695,1.708 -0.3648,1.7331 -0.5637,1.7308 -0.668,1.6617 c -0.2181,0.5428 -0.4412,1.0126 -0.7093,1.443 -0.2248,0.361 -0.5005,0.8819 -0.7691,1.2697 -0.2147,0.31 -0.4703,0.6615 -0.7006,1.0691 -0.3191,0.5648 -0.6394,0.9763 -1.03546,1.4558 -0.18516,0.2242 -0.67523,0.8108 -1.33493,1.5172 -0.72027,0.7712 -1.4085,1.3651 -2.27779,2.047 -0.64944,0.5094 -1.6128,1.2056 -2.49674,1.7091 l -1.41011,0.8033 -1.5231,0.695 -2.03387,0.8442 -2.12203,0.5712 -1.9633,0.3418 -2.2571,0.1617 -1.84771,-10e-4 -2.77465,-0.306 z"
             id="path181-6-4-0-6"
             transform="translate(1556.7803,46.668752)" /><path
             style="display:inline;fill:#ffffff"
             d="m 888.92735,1345.9015 c -1.63575,-0.5153 -2.03724,-0.6899 -3.38458,-1.2441 -0.30818,-0.1267 -0.78754,-0.3794 -1.16397,-0.5512 -0.29482,-0.1346 -0.63444,-0.2831 -1.01936,-0.5118 l -1.57154,-0.9338 -1.35018,-0.956 -1.5105,-1.3508 -1.22875,-1.3944 c -0.2092,-0.2374 -0.50683,-0.5979 -0.79649,-0.9444 -0.24747,-0.296 -0.38647,-0.4751 -0.65667,-0.7862 -0.1483,-0.1708 -0.31383,-0.4244 -0.42854,-0.6023 -0.21075,-0.3267 -0.28747,-0.4828 -0.50289,-0.7496 -0.15808,-0.1958 -0.36319,-0.5171 -0.45889,-0.7196 -0.13917,-0.2946 -0.35044,-0.5423 -0.5085,-0.8388 -0.082,-0.1538 -0.18798,-0.3629 -0.28572,-0.5494 -0.092,-0.1756 -0.21514,-0.4581 -0.33312,-0.6974 -0.0966,-0.1958 -0.2358,-0.4257 -0.29377,-0.6079 -0.0827,-0.2598 -0.22473,-0.5435 -0.29253,-0.7098 l -0.2381,-0.584 -0.26363,-0.635 -0.37638,-1.2008 -0.32807,-1.2042 -0.24149,-1.1083 -0.14208,-0.9953 -0.064,-0.9396 -0.16031,-365.08761 0.0652,-32.32 0.24767,-1.6369 0.39649,-1.405 c 0.45283,-1.7537 0.4558,-1.6461 0.96513,-3.0601 0.26979,-0.749 0.53528,-1.262 0.83137,-1.8248 0.30835,-0.5861 0.65333,-1.2227 1.24834,-2.0585 l 1.79044,-2.6102 2.70917,-2.7942 2.40876,-1.8103 2.09487,-1.2589 2.3698,-1.0458 2.16615,-0.7111 2.64936,-0.5497 2.35102,-0.2454 2.38861,-0.01 2.04585,0.2386 2.26064,0.4624 2.02986,0.5927 2.21116,0.9524 1.91999,1.1334 1.55082,1.0279 1.2529,0.9333 1.36293,1.2723 1.37851,1.4435 1.28844,1.5476 1.14514,1.7307 0.83252,1.2848 1.24902,2.696 0.50544,1.6186 0.54548,2.1358 0.24817,1.6285 -0.0702,31.0943 0.15531,366.15701 v 1.2685 l -0.26951,1.708 -0.36477,1.7331 -0.56372,1.7308 -0.66792,1.6617 c -0.21818,0.5428 -0.44129,1.0126 -0.70934,1.443 -0.22481,0.361 -0.50054,0.8819 -0.76911,1.2697 -0.21468,0.31 -0.47034,0.6615 -0.70063,1.0691 -0.3191,0.5648 -0.6394,0.9763 -1.03543,1.4558 -0.18516,0.2242 -0.67523,0.8108 -1.33493,1.5172 -0.72027,0.7712 -1.4085,1.3651 -2.27779,2.047 -0.64944,0.5094 -1.61283,1.2055 -2.49674,1.7091 l -1.41011,0.8033 -1.5231,0.695 -2.03387,0.8442 -2.12203,0.5712 -1.9633,0.3418 -2.2571,0.1617 h -1.84771 l -2.77465,-0.306 z"
             id="path181-6-4-0-8"
             transform="translate(1556.7803,46.668752)" /><g
             id="layer4"
             style="display:inline;fill:#ffffff"
             transform="translate(1556.7803,46.668752)" /><path
             id="path181"
             style="display:inline;opacity:1;fill:#ffffff"
             d="m 2705.5092,792.28472 c 0.2325,4.05541 0.5236,7.92584 0.7346,11.98241 5.003,-2.88348 9.9681,-5.83157 14.8516,-8.91389 1.3459,-0.85458 2.6877,-1.73168 3.9731,-2.67883 l -6.0734,-0.46884 -1.7762,-0.003 -4.3989,0.01 -2.6312,0.008 -2.745,0.0281 z m 35.9734,332.85928 c -0.7618,0.093 -1.5352,0.235 -2.2971,0.3264 -0.8602,0.097 -1.4701,0.2242 -2.3347,0.2798 -0.01,0.094 -0.1691,-0.017 -0.1691,-0.017 -0.094,0.1629 -0.2054,-0.089 -0.2856,-0.081 -0.2862,0.027 -0.5727,0.049 -0.8599,0.064 -0.083,0.015 -0.1884,0.085 -0.2711,0.085 -0.1242,0 -0.2253,-0.06 -0.3498,-0.06 l -0.6496,0.02 h -4.7485 c -0.013,1.4374 -0.013,2.8737 -0.026,4.3112 -0.3148,20.6085 -0.3106,41.2192 -0.1604,61.8289 0.024,11.2438 0.3084,22.4833 0.6851,33.72 26.8212,-4.5456 53.6359,-9.1337 80.3183,-14.4464 3.5005,-0.6972 6.0516,-1.1904 8.9547,-1.7694 -0.4331,-0.4172 -0.6874,-0.6654 -1.0086,-0.9736 -0.1575,-0.1512 6.727,-4.0137 6.821,-4.0547 3.3662,-1.4813 8.9145,-5.388 14.8808,-9.8671 -24.0169,-19.2054 -48.0023,-38.4719 -72.8095,-56.6489 -2.9428,-2.1034 -5.8744,-4.221 -8.8264,-6.3109 -1.4887,-0.6059 -2.9622,-1.2486 -4.457,-1.8393 -4.1005,-1.6129 -8.2444,-3.1093 -12.403,-4.5648 z m 412.5605,206.2846 c 0.082,1.4142 0.1121,2.8336 0.2507,4.2442 0.049,0.5015 0.3866,1.9058 0.5188,1.4196 0.346,-1.2728 -0.1649,-3.5664 -0.7695,-5.6638 z m -48.1665,335.0085 v 0.012 c 0,7e-4 -4e-4,0 0.012,0 z m 0.015,0.023 c 2.7618,2.7707 5.7822,5.7379 8.5145,8.4854 l 1.4167,0.012 c -0.8328,-1.246 -1.9685,-2.8969 -2.8071,-4.1596 -1.5101,-1.1554 -3.037,-2.2846 -4.5648,-3.4163 -0.8587,-0.2894 -1.7039,-0.6219 -2.5593,-0.9212 z" /><g
             id="g46"
             transform="translate(1591.45,55.399172)"
             style="display:inline;fill:#ffffff"><path
               id="path181-66"
               style="display:inline;fill:#ffffff"
               d="m 1553.9129,1005.1718 a 75.816294,74.828843 0 0 0 -75.8164,74.8282 75.816294,74.828843 0 0 0 75.8164,74.8282 75.816294,74.828843 0 0 0 75.8164,-74.8282 75.816294,74.828843 0 0 0 -75.8164,-74.8282 z m 0,14.5176 a 61.107404,60.311526 0 0 1 61.1075,60.3126 61.107404,60.311526 0 0 1 -61.1075,60.3105 61.107404,60.311526 0 0 1 -61.1074,-60.3105 61.107404,60.311526 0 0 1 61.1074,-60.3126 z m 13.5332,20.8223 -19.2382,0.016 -19.2383,0.016 c -0.7353,0.9702 -1.4727,1.9374 -2.1621,2.9414 v 35.7012 c 0,12.8682 -0.012,26.638 0.086,39.5058 3.011,0.023 5.7348,-0.02 8.4492,-0.01 h 7.5996 c 0.2026,-10.2148 -0.024,-12.3816 0.2149,-26.8692 l 5.7871,-0.047 5.8887,0.016 c 6.1312,10.7996 9.0641,16.174 12.3711,21.7129 l 3.1054,5.2011 v 0 c 6.2053,0 12.4077,-0.026 18.7188,-0.016 l -3.0899,-5.207 -1.6699,-2.877 c -1.7632,-3.0363 -3.4883,-5.8579 -5.2598,-9.041 -1.2781,-2.2967 -5.5523,-9.2039 -6.7597,-12.1015 0,0 1.8423,-0.848 3.25,-2.0899 0.9225,-0.8139 1.8383,-1.4906 2.4941,-2.2129 0.7752,-0.8538 1.6984,-1.7394 2.3516,-2.6933 0.7652,-1.1175 1.2468,-2.2594 1.918,-3.4024 0.486,-0.8276 0.9038,-2.1092 1.248,-3.2324 l 1.1133,-3.6328 0.5254,-3.7559 0.1543,-3.0664 -0.1309,-3.2832 -0.4863,-3.5293 -1.0645,-4.1406 c -0.5448,-2.1198 -0.3859,-1.8915 -1.5937,-4.373 -0.4563,-0.9377 -1.0126,-2.4997 -2.4903,-3.8653 l -2.0625,-1.9062 -2.414,-1.5684 c -2.0112,-1.3067 -3.3396,-1.5897 -4.7754,-1.793 z m -4.6445,14.8946 1.7363,0.6308 1.5098,0.8165 1.5586,1.3847 1.5176,2.4512 c 0.5467,1.1838 0.9371,3.0553 0.9961,3.9121 0.1139,1.6589 0.034,2.9641 -0.2285,4.0801 -0.3244,1.3807 -0.8601,2.6586 -2.0332,5.0136 -0.2954,0.593 -0.3916,0.7566 -1.379,2.1836 -0.46,0.6647 -1.3504,1.3749 -1.9023,1.793 l -0.6113,0.4629 -1.1778,0.4258 -2.9746,0.039 -3.3984,-0.021 c -4.1642,0.1097 -6.0438,-0.018 -11.8965,0 l -1.4902,0.02 -0.027,-1.4043 c 0.031,-1.8078 0.071,-3.1045 0,-11.7715 l 0.029,-10.0117 9.709,0.039 z" /></g><path
             id="path43"
             style="display:inline;fill:#ffffff;stroke-width:1.58595"
             d="m 2632.6895,558.54883 a 574.20913,574.20913 0 0 0 -387.8047,152.02734 l 206.4843,-0.18359 -0.01,0.88672 a 474.65649,457.71995 0 0 1 181.3281,-36.24219 474.65649,457.71995 0 0 1 461.6914,357.51559 H 3197.029 A 574.20913,574.20913 0 0 0 2632.6895,558.54883 Z m -518.4688,332.49805 a 574.20913,574.20913 0 0 0 -55.7422,241.70902 574.20913,574.20913 0 0 0 574.211,574.2109 574.20913,574.20913 0 0 0 333.8203,-109.127 l -79.67,-79.6699 a 474.65649,457.71995 0 0 1 -254.1503,72.3086 474.65649,457.71995 0 0 1 -474.6602,-457.7226 474.65649,457.71995 0 0 1 32.7539,-162.19535 z m 981.5605,341.91602 a 474.65649,457.71995 0 0 1 -55.5898,129.6816 l 76.6309,76.6328 a 574.20913,574.20913 0 0 0 81.0918,-206.3144 z" /><path
             id="rect73"
             style="display:inline;opacity:1;fill:#ffffff;stroke-width:0.977568"
             transform="rotate(-45)"
             d="m 1139.2858,2743.3464 h -121.9456 v 642.3679 l 121.8641,121.864 h 0.083 z" /><path
             id="rect82"
             style="display:inline;opacity:1;fill:#ffffff;stroke-width:0.989846"
             d="m 2133.6384,792.28964 107.1125,107.11247 h 307.0979 c 0.9921,-1.46791 2.0104,-2.91699 3.0257,-4.3491 6.4151,-8.37293 13.4684,-16.33225 21.5735,-23.11841 1.8378,-1.53879 3.7725,-2.9621 5.6579,-4.44237 11.7385,-8.54947 25.018,-14.50866 38.0983,-20.64945 11.5987,-5.47538 23.1839,-10.97207 34.9355,-16.1138 9.574,-4.03717 19.1862,-7.96541 28.5548,-12.46429 7.8171,-3.79922 15.5413,-7.78452 23.133,-12.0154 5.4743,-3.09865 10.8791,-6.31536 16.2187,-9.63971 v -4.31994 z" /><rect
             style="display:inline;fill:#ffffff;stroke-width:48.4283"
             id="rect91"
             width="124.03223"
             height="97.990601"
             x="2610.5117"
             y="1125.75" /></g><path
           id="path100"
           style="font-variation-settings:'wght' 800;display:inline;opacity:1;fill:#ffffff;stroke-width:1.06714"
           d="m 706.17578,852.02539 c -51.48626,0.052 -98.51418,27.67544 -124.33984,71.61914 h 121.96484 c 1.72186,-0.13129 3.4509,-0.20684 5.18555,-0.20898 40.09432,1.5e-4 72.59705,34.04032 72.59765,76.03125 5.7e-4,39.8401 -29.25756,72.5254 -66.49804,75.7695 -0.2552,0.022 -0.84562,0.035 -1.10156,0.055 -1.76114,0.1339 -3.20429,0.209 -4.99805,0.209 -1.07496,-0.077 -2.17939,-0.047 -3.25,-0.1738 -0.19432,0.032 -0.39322,0.042 -0.62305,0.041 -0.11673,0 -0.51904,0.216 -0.52344,0.072 -1.03749,-0.01 -1.71728,-0.012 -2.75195,-0.09 -0.28743,-0.022 -0.26342,0.1563 -0.2793,0.1563 -0.0681,1.6445 -0.0684,2.9868 -0.14453,4.6308 -0.30855,6.6679 -0.40088,6.6999 -0.53125,13.5703 -0.14263,7.5169 0.0111,15.0149 0.2461,22.5274 0.42226,9.2763 0.94261,18.5462 1.35742,27.8222 1.22865,0.1044 2.45856,0.1931 3.68945,0.2657 79.98876,-2e-4 144.83185,-65.4343 144.83008,-146.15042 -5.1e-4,-80.71447 -64.84293,-146.14625 -144.83008,-146.14649 z m -8.26367,226.55471 c -0.12868,0.2032 -0.31796,0.5887 -0.47461,0.8711 0.0255,-0.016 0.0506,-0.037 0.0762,-0.053 0.25791,-0.1591 0.56055,-1.0743 0.39844,-0.8183 z" /></g></g></g></svg>
